<mxfile host="app.diagrams.net" modified="2021-11-01T17:31:16.012Z" agent="5.0 (Windows NT 10.0; Win64; x64) AppleWebKit/537.36 (KHTML, like Gecko) Chrome/95.0.4638.54 Safari/537.36" etag="aVF-wmVAzP78n3vOZgxk" version="15.6.4" type="github">
  <diagram id="kB--6zoTMuOAqfNfaL6p" name="Page-1">
    <mxGraphModel dx="1978" dy="1545" grid="1" gridSize="10" guides="1" tooltips="1" connect="1" arrows="1" fold="1" page="1" pageScale="1" pageWidth="827" pageHeight="1169" math="0" shadow="0">
      <root>
        <mxCell id="0" />
        <mxCell id="1" parent="0" />
        <mxCell id="QlEdx4UEs0OYqYEUu8Mq-2" value="" style="verticalLabelPosition=bottom;verticalAlign=top;html=1;shape=mxgraph.basic.patternFillRect;fillStyle=diag;step=5;fillStrokeWidth=0.2;fillStrokeColor=#dddddd;fillColor=default;strokeColor=default;fontColor=default;" vertex="1" parent="1">
          <mxGeometry x="40" y="40" width="1040" height="720" as="geometry" />
        </mxCell>
        <mxCell id="QlEdx4UEs0OYqYEUu8Mq-4" value="&lt;font style=&quot;font-size: 24px&quot;&gt;&lt;b&gt;Login screen&lt;/b&gt;&lt;/font&gt;" style="text;html=1;strokeColor=none;fillColor=none;align=center;verticalAlign=middle;whiteSpace=wrap;rounded=0;fontColor=default;" vertex="1" parent="1">
          <mxGeometry x="40" width="160" height="30" as="geometry" />
        </mxCell>
        <mxCell id="QlEdx4UEs0OYqYEUu8Mq-5" value="" style="rounded=0;whiteSpace=wrap;html=1;fontSize=24;fontColor=default;strokeColor=default;fillColor=default;" vertex="1" parent="1">
          <mxGeometry x="40" y="40" width="1040" height="100" as="geometry" />
        </mxCell>
        <mxCell id="QlEdx4UEs0OYqYEUu8Mq-6" value="" style="rounded=1;whiteSpace=wrap;html=1;fontSize=24;fontColor=default;strokeColor=default;fillColor=default;" vertex="1" parent="1">
          <mxGeometry x="1260" y="280" width="260" height="420" as="geometry" />
        </mxCell>
        <mxCell id="QlEdx4UEs0OYqYEUu8Mq-7" value="" style="icon;html=1;image=img/clipart/Gear_128x128.png;fontSize=24;fontColor=default;strokeColor=default;fillColor=default;labelBackgroundColor=default;" vertex="1" parent="1">
          <mxGeometry x="60" y="60" width="60" height="60" as="geometry" />
        </mxCell>
        <mxCell id="QlEdx4UEs0OYqYEUu8Mq-9" value="Online Clicker" style="text;html=1;strokeColor=default;fillColor=default;align=center;verticalAlign=middle;whiteSpace=wrap;rounded=0;fontSize=24;fontColor=default;" vertex="1" parent="1">
          <mxGeometry x="1255" y="300" width="270" height="30" as="geometry" />
        </mxCell>
        <mxCell id="QlEdx4UEs0OYqYEUu8Mq-10" value="" style="icon;html=1;image=img/clipart/Gear_128x128.png;fontSize=24;fontColor=default;strokeColor=default;fillColor=default;labelBackgroundColor=default;" vertex="1" parent="1">
          <mxGeometry x="1340" y="340" width="100" height="100" as="geometry" />
        </mxCell>
        <mxCell id="QlEdx4UEs0OYqYEUu8Mq-11" value="Email" style="text;html=1;strokeColor=default;fillColor=default;align=left;verticalAlign=middle;whiteSpace=wrap;rounded=0;labelBackgroundColor=default;fontSize=24;fontColor=default;" vertex="1" parent="1">
          <mxGeometry x="1270" y="450" width="120" height="30" as="geometry" />
        </mxCell>
        <mxCell id="QlEdx4UEs0OYqYEUu8Mq-12" value="" style="rounded=0;whiteSpace=wrap;html=1;labelBackgroundColor=default;fontSize=24;fontColor=default;strokeColor=default;fillColor=default;" vertex="1" parent="1">
          <mxGeometry x="1270" y="480" width="240" height="30" as="geometry" />
        </mxCell>
        <mxCell id="QlEdx4UEs0OYqYEUu8Mq-13" value="Password" style="text;html=1;strokeColor=default;fillColor=default;align=left;verticalAlign=middle;whiteSpace=wrap;rounded=0;labelBackgroundColor=default;fontSize=24;fontColor=default;" vertex="1" parent="1">
          <mxGeometry x="1270" y="524" width="120" height="30" as="geometry" />
        </mxCell>
        <mxCell id="QlEdx4UEs0OYqYEUu8Mq-14" value="" style="rounded=0;whiteSpace=wrap;html=1;labelBackgroundColor=default;fontSize=24;fontColor=default;strokeColor=default;fillColor=default;" vertex="1" parent="1">
          <mxGeometry x="1270" y="554" width="240" height="30" as="geometry" />
        </mxCell>
        <UserObject label="&lt;font style=&quot;font-size: 14px;&quot;&gt;I forgot my password...&lt;/font&gt;" link="https://www.draw.io" id="QlEdx4UEs0OYqYEUu8Mq-15">
          <mxCell style="text;html=1;strokeColor=default;fillColor=default;whiteSpace=wrap;align=center;verticalAlign=middle;fontColor=default;fontStyle=4;labelBackgroundColor=default;fontSize=14;" vertex="1" parent="1">
            <mxGeometry x="1270" y="580" width="150" height="30" as="geometry" />
          </mxCell>
        </UserObject>
        <UserObject label="&lt;font style=&quot;font-size: 24px;&quot;&gt;Register Here!&lt;/font&gt;" link="https://www.draw.io" id="QlEdx4UEs0OYqYEUu8Mq-16">
          <mxCell style="text;html=1;strokeColor=default;fillColor=default;whiteSpace=wrap;align=center;verticalAlign=middle;fontColor=default;fontStyle=4;labelBackgroundColor=default;fontSize=24;" vertex="1" parent="1">
            <mxGeometry x="1315" y="630" width="165" height="60" as="geometry" />
          </mxCell>
        </UserObject>
        <mxCell id="QlEdx4UEs0OYqYEUu8Mq-28" value="" style="group;fontColor=default;" vertex="1" connectable="0" parent="1">
          <mxGeometry x="414" y="180" width="270" height="420" as="geometry" />
        </mxCell>
        <mxCell id="QlEdx4UEs0OYqYEUu8Mq-17" value="" style="rounded=1;whiteSpace=wrap;html=1;fontSize=24;fontColor=default;strokeColor=default;fillColor=default;" vertex="1" parent="QlEdx4UEs0OYqYEUu8Mq-28">
          <mxGeometry x="5" width="260" height="420" as="geometry" />
        </mxCell>
        <mxCell id="QlEdx4UEs0OYqYEUu8Mq-18" value="Online Clicker" style="text;html=1;strokeColor=default;fillColor=default;align=center;verticalAlign=middle;whiteSpace=wrap;rounded=0;fontSize=24;fontColor=default;" vertex="1" parent="QlEdx4UEs0OYqYEUu8Mq-28">
          <mxGeometry y="20" width="270" height="30" as="geometry" />
        </mxCell>
        <mxCell id="QlEdx4UEs0OYqYEUu8Mq-19" value="" style="icon;html=1;image=img/clipart/Gear_128x128.png;fontSize=24;fontColor=default;strokeColor=default;fillColor=default;labelBackgroundColor=default;" vertex="1" parent="QlEdx4UEs0OYqYEUu8Mq-28">
          <mxGeometry x="85" y="60" width="100" height="100" as="geometry" />
        </mxCell>
        <mxCell id="QlEdx4UEs0OYqYEUu8Mq-20" value="Email" style="text;html=1;strokeColor=default;fillColor=default;align=left;verticalAlign=middle;whiteSpace=wrap;rounded=0;labelBackgroundColor=default;fontSize=24;fontColor=default;" vertex="1" parent="QlEdx4UEs0OYqYEUu8Mq-28">
          <mxGeometry x="15" y="170" width="120" height="30" as="geometry" />
        </mxCell>
        <mxCell id="QlEdx4UEs0OYqYEUu8Mq-21" value="" style="rounded=0;whiteSpace=wrap;html=1;labelBackgroundColor=default;fontSize=24;fontColor=default;strokeColor=default;fillColor=default;" vertex="1" parent="QlEdx4UEs0OYqYEUu8Mq-28">
          <mxGeometry x="15" y="200" width="240" height="30" as="geometry" />
        </mxCell>
        <mxCell id="QlEdx4UEs0OYqYEUu8Mq-22" value="Password" style="text;html=1;strokeColor=default;fillColor=default;align=left;verticalAlign=middle;whiteSpace=wrap;rounded=0;labelBackgroundColor=default;fontSize=24;fontColor=default;" vertex="1" parent="QlEdx4UEs0OYqYEUu8Mq-28">
          <mxGeometry x="15" y="244" width="120" height="30" as="geometry" />
        </mxCell>
        <mxCell id="QlEdx4UEs0OYqYEUu8Mq-23" value="" style="rounded=0;whiteSpace=wrap;html=1;labelBackgroundColor=default;fontSize=24;fontColor=default;strokeColor=default;fillColor=default;" vertex="1" parent="QlEdx4UEs0OYqYEUu8Mq-28">
          <mxGeometry x="15" y="274" width="240" height="30" as="geometry" />
        </mxCell>
        <UserObject label="&lt;font style=&quot;font-size: 14px;&quot;&gt;I forgot my password...&lt;/font&gt;" link="https://www.draw.io" id="QlEdx4UEs0OYqYEUu8Mq-24">
          <mxCell style="text;html=1;strokeColor=default;fillColor=default;whiteSpace=wrap;align=center;verticalAlign=middle;fontColor=default;fontStyle=4;labelBackgroundColor=default;fontSize=14;" vertex="1" parent="QlEdx4UEs0OYqYEUu8Mq-28">
            <mxGeometry x="15" y="300" width="150" height="30" as="geometry" />
          </mxCell>
        </UserObject>
        <UserObject label="&lt;font style=&quot;font-size: 24px;&quot;&gt;Register Here!&lt;/font&gt;" link="https://www.draw.io" id="QlEdx4UEs0OYqYEUu8Mq-25">
          <mxCell style="text;html=1;strokeColor=default;fillColor=default;whiteSpace=wrap;align=center;verticalAlign=middle;fontColor=default;fontStyle=4;labelBackgroundColor=default;fontSize=24;" vertex="1" parent="QlEdx4UEs0OYqYEUu8Mq-28">
            <mxGeometry x="60" y="350" width="165" height="60" as="geometry" />
          </mxCell>
        </UserObject>
      </root>
    </mxGraphModel>
  </diagram>
</mxfile>
